<svg xmlns="http://www.w3.org/2000/svg" viewBox="0 0 696 170"><g transform="translate(10,19.0)"><g transform="scale(0.66)"><rect width="200" height="200" rx="30" fill="#0E1220"/><rect x="56" y="44" width="88" height="112" rx="14" fill="#FFFFFF"/><rect x="72" y="66" width="52" height="9" rx="4.5" fill="#0E1220"/><rect x="72" y="95" width="96" height="9" rx="4.5" fill="#FF4D26"/><rect x="72" y="124" width="38" height="9" rx="4.5" fill="#C4CAD6"/></g></g><g transform="translate(172.0,114)"><path d="M7.0 0.0V-49.6H19.400000000000002V-44.2H21.200000000000003Q22.5 -46.7 25.5 -48.550000000000004Q28.5 -50.400000000000006 33.4 -50.400000000000006Q38.7 -50.400000000000006 41.900000000000006 -48.35000000000001Q45.1 -46.300000000000004 46.800000000000004 -43.0H48.6Q50.300000000000004 -46.2 53.400000000000006 -48.300000000000004Q56.5 -50.400000000000006 62.2 -50.400000000000006Q66.8 -50.400000000000006 70.55 -48.45Q74.3 -46.5 76.55000000000001 -42.55Q78.80000000000001 -38.6 78.80000000000001 -32.6V0.0H66.2V-31.700000000000003Q66.2 -35.800000000000004 64.1 -37.85000000000001Q62.0 -39.900000000000006 58.2 -39.900000000000006Q53.900000000000006 -39.900000000000006 51.550000000000004 -37.150000000000006Q49.2 -34.4 49.2 -29.3V0.0H36.6V-31.700000000000003Q36.6 -35.800000000000004 34.5 -37.85000000000001Q32.4 -39.900000000000006 28.6 -39.900000000000006Q24.3 -39.900000000000006 21.950000000000003 -37.150000000000006Q19.6 -34.4 19.6 -29.3V0.0Z M97.00000000000001 20.0V9.0H124.00000000000001Q126.80000000000001 9.0 126.80000000000001 6.0V-6.5H125.00000000000001Q124.20000000000002 -4.800000000000001 122.50000000000001 -3.1000000000000005Q120.80000000000001 -1.4000000000000001 117.9 -0.30000000000000004Q115.00000000000001 0.8 110.50000000000001 0.8Q104.70000000000002 0.8 100.35000000000002 -1.85Q96.00000000000001 -4.5 93.60000000000001 -9.2Q91.2 -13.9 91.2 -20.0V-49.6H103.80000000000001V-21.0Q103.80000000000001 -15.4 106.55000000000001 -12.600000000000001Q109.30000000000001 -9.8 114.4 -9.8Q120.20000000000002 -9.8 123.4 -13.65Q126.60000000000001 -17.5 126.60000000000001 -24.400000000000002V-49.6H139.20000000000002V8.8Q139.20000000000002 13.9 136.20000000000002 16.95Q133.20000000000002 20.0 128.20000000000002 20.0Z M176.50000000000003 1.4000000000000001Q169.3 1.4000000000000001 163.45000000000002 -1.6Q157.60000000000002 -4.6000000000000005 154.20000000000002 -10.3Q150.8 -16.0 150.8 -24.1V-25.5Q150.8 -33.6 154.20000000000002 -39.3Q157.60000000000002 -45.0 163.45000000000002 -48.0Q169.3 -51.0 176.50000000000003 -51.0Q183.60000000000002 -51.0 188.70000000000002 -48.5Q193.8 -46.0 196.95000000000002 -41.650000000000006Q200.10000000000002 -37.300000000000004 201.10000000000002 -31.8L188.90000000000003 -29.200000000000003Q188.50000000000003 -32.2 187.10000000000002 -34.6Q185.70000000000002 -37.0 183.15000000000003 -38.400000000000006Q180.60000000000002 -39.800000000000004 176.8 -39.800000000000004Q173.00000000000003 -39.800000000000004 169.95000000000005 -38.150000000000006Q166.90000000000003 -36.5 165.15000000000003 -33.25Q163.4 -30.0 163.4 -25.3V-24.3Q163.4 -19.6 165.15000000000003 -16.35Q166.90000000000003 -13.100000000000001 169.95000000000005 -11.450000000000001Q173.00000000000003 -9.8 176.8 -9.8Q182.50000000000003 -9.8 185.45000000000005 -12.75Q188.40000000000003 -15.700000000000001 189.20000000000002 -20.5L201.40000000000003 -17.6Q200.10000000000002 -12.3 196.95000000000002 -7.95Q193.8 -3.6 188.70000000000002 -1.1Q183.60000000000002 1.4000000000000001 176.50000000000003 1.4000000000000001Z M220.8 0.0 205.0 -49.6H218.4L229.9 -9.200000000000001H231.70000000000002L243.20000000000002 -49.6H256.6L240.8 0.0Z" fill="#FFFFFF"/></g><g transform="translate(432.2,114)"><path d="M7.0 0.0V-49.6H19.400000000000002V-44.0H21.200000000000003Q22.3 -47.0 24.85 -48.400000000000006Q27.400000000000002 -49.800000000000004 30.8 -49.800000000000004H36.800000000000004V-38.6H30.6Q25.8 -38.6 22.700000000000003 -36.05Q19.6 -33.5 19.6 -28.200000000000003V0.0Z M68.4 1.4000000000000001Q61.00000000000001 1.4000000000000001 55.10000000000001 -1.6Q49.2 -4.6000000000000005 45.800000000000004 -10.3Q42.400000000000006 -16.0 42.400000000000006 -24.0V-25.6Q42.400000000000006 -33.6 45.800000000000004 -39.3Q49.2 -45.0 55.10000000000001 -48.0Q61.00000000000001 -51.0 68.4 -51.0Q75.80000000000001 -51.0 81.70000000000002 -48.0Q87.60000000000001 -45.0 91.0 -39.3Q94.4 -33.6 94.4 -25.6V-24.0Q94.4 -16.0 91.0 -10.3Q87.60000000000001 -4.6000000000000005 81.70000000000002 -1.6Q75.80000000000001 1.4000000000000001 68.4 1.4000000000000001ZM68.4 -9.8Q74.2 -9.8 78.0 -13.55Q81.80000000000001 -17.3 81.80000000000001 -24.3V-25.3Q81.80000000000001 -32.300000000000004 78.05000000000001 -36.050000000000004Q74.30000000000001 -39.800000000000004 68.4 -39.800000000000004Q62.60000000000001 -39.800000000000004 58.800000000000004 -36.050000000000004Q55.0 -32.300000000000004 55.0 -25.3V-24.3Q55.0 -17.3 58.800000000000004 -13.55Q62.60000000000001 -9.8 68.4 -9.8Z M121.4 1.4000000000000001Q116.1 1.4000000000000001 111.9 -0.45000000000000007Q107.7 -2.3000000000000003 105.25 -5.8500000000000005Q102.8 -9.4 102.8 -14.5Q102.8 -19.6 105.25 -23.05Q107.7 -26.5 112.05000000000001 -28.25Q116.4 -30.0 122.0 -30.0H135.6V-32.800000000000004Q135.6 -36.300000000000004 133.39999999999998 -38.550000000000004Q131.2 -40.800000000000004 126.4 -40.800000000000004Q121.7 -40.800000000000004 119.4 -38.650000000000006Q117.1 -36.5 116.4 -33.1L104.8 -37.0Q106.0 -40.800000000000004 108.65 -43.95Q111.3 -47.1 115.75 -49.05Q120.2 -51.0 126.6 -51.0Q136.4 -51.0 142.10000000000002 -46.1Q147.8 -41.2 147.8 -31.900000000000002V-13.4Q147.8 -10.4 150.6 -10.4H154.6V0.0H146.2Q142.5 0.0 140.1 -1.8Q137.7 -3.6 137.7 -6.6000000000000005V-6.7H135.8Q135.4 -5.5 134.0 -3.55Q132.6 -1.6 129.6 -0.09999999999999998Q126.6 1.4000000000000001 121.4 1.4000000000000001ZM123.6 -8.8Q128.9 -8.8 132.25 -11.75Q135.6 -14.700000000000001 135.6 -19.6V-20.6H122.9Q119.4 -20.6 117.4 -19.1Q115.4 -17.6 115.4 -14.9Q115.4 -12.200000000000001 117.5 -10.5Q119.6 -8.8 123.6 -8.8Z M184.0 1.4000000000000001Q174.3 1.4000000000000001 168.10000000000002 -2.8Q161.9 -7.0 160.6 -14.8L172.20000000000002 -17.8Q172.9 -14.3 174.55 -12.3Q176.20000000000002 -10.3 178.65000000000003 -9.45Q181.10000000000002 -8.6 184.0 -8.6Q188.4 -8.6 190.5 -10.15Q192.60000000000002 -11.700000000000001 192.60000000000002 -14.0Q192.60000000000002 -16.3 190.60000000000002 -17.55Q188.60000000000002 -18.8 184.20000000000002 -19.6L181.4 -20.1Q176.20000000000002 -21.1 171.9 -22.85Q167.6 -24.6 165.0 -27.700000000000003Q162.4 -30.8 162.4 -35.7Q162.4 -43.1 167.8 -47.05Q173.20000000000002 -51.0 182.0 -51.0Q190.3 -51.0 195.8 -47.3Q201.3 -43.6 203.0 -37.6L191.3 -34.0Q190.5 -37.800000000000004 188.05 -39.400000000000006Q185.60000000000002 -41.0 182.0 -41.0Q178.4 -41.0 176.5 -39.75Q174.6 -38.5 174.6 -36.300000000000004Q174.6 -33.9 176.60000000000002 -32.75Q178.60000000000002 -31.6 182.0 -31.0L184.8 -30.5Q190.4 -29.5 194.95 -27.85Q199.5 -26.200000000000003 202.15 -23.150000000000002Q204.8 -20.1 204.8 -14.9Q204.8 -7.1000000000000005 199.15 -2.85Q193.5 1.4000000000000001 184.0 1.4000000000000001Z M233.8 0.0Q228.9 0.0 225.85000000000002 -3.0500000000000003Q222.8 -6.1000000000000005 222.8 -11.200000000000001V-39.2H210.4V-49.6H222.8V-65.0H235.4V-49.6H249.0V-39.2H235.4V-13.4Q235.4 -10.4 238.20000000000002 -10.4H247.8V0.0Z" fill="#FF4D26"/></g></svg>